<?xml version="1.0" encoding="utf-8"?>
<!-- Generator: Adobe Illustrator 25.4.1, SVG Export Plug-In . SVG Version: 6.00 Build 0)  -->
<svg version="1.1" id="Layer_1" xmlns="http://www.w3.org/2000/svg" xmlns:xlink="http://www.w3.org/1999/xlink" x="0px" y="0px"
	 viewBox="0 0 779.1 694" style="enable-background:new 0 0 779.1 694;" xml:space="preserve">
<style type="text/css">
	.st0{fill:#FFFCE4;}
	.st1{fill:url(#SVGID_1_);}
	.st2{fill:url(#SVGID_00000054981047446561192000000008785572957724054148_);}
	.st3{fill:url(#SVGID_00000131349499713627335150000018388791304680621224_);}
	.st4{fill:url(#SVGID_00000150788081578513006900000001298482516846888598_);}
	.st5{fill:url(#SVGID_00000057857802981384497300000015648635703531699871_);}
	.st6{fill:url(#SVGID_00000087409719406755477910000002204487342309154451_);}
	.st7{fill:url(#SVGID_00000000928665605344717830000005987444724188422802_);}
	.st8{fill:#FFFFFF;}
</style>
<g>
	<path class="st0" d="M372.3,694c-108.5,0-211.5-51.4-276.9-137.9c-1.3,0.1-2.5,0.1-3.7,0.1c-26.3,0-38.2-13.8-39.4-15.4
		c-0.4-0.4-0.7-0.9-1-1.4c-4.7-6.1-12.8-19.1-17.9-31.8c-47.4-112.7-18.6-260.3,7-296.5c4.8-8.1,11.4-15.3,19.8-21.5
		c1.3-1,2.7-1.9,4.3-2.9C124.5,71.4,242.1,0,372.3,0c114.5,0,220.2,55.6,285.2,149.3c5.4-1.9,10.9-2.9,16.5-2.9
		c15.5,0,25.6,7.8,26.7,8.7l-0.1,0.1c7.5,5.5,16.9,18.6,24.2,34.2c21.5,46,34.7,134.4,1,232.4c-5.5,16-14.7,30.6-26.8,42.4
		C649.7,601.8,518.8,694,372.3,694z"/>
	
		<linearGradient id="SVGID_1_" gradientUnits="userSpaceOnUse" x1="125.2837" y1="501.0593" x2="634.0292" y2="185.1712" gradientTransform="matrix(1 0 0 -1 0 694)">
		<stop  offset="0.2239" style="stop-color:#FAE935"/>
		<stop  offset="0.3587" style="stop-color:#FAE334"/>
		<stop  offset="0.5352" style="stop-color:#FAD333"/>
		<stop  offset="0.7338" style="stop-color:#FAB830"/>
		<stop  offset="0.831" style="stop-color:#FAA82E"/>
	</linearGradient>
	<circle class="st1" cx="373.4" cy="347" r="333.9"/>
	
		<radialGradient id="SVGID_00000137851067851850953000000014357072866232932496_" cx="652.2852" cy="530.6156" r="39.6832" gradientTransform="matrix(1 0 0 -1 0 694)" gradientUnits="userSpaceOnUse">
		<stop  offset="0" style="stop-color:#FFD82B"/>
		<stop  offset="0.5" style="stop-color:#FFC42F"/>
		<stop  offset="0.8941" style="stop-color:#FAAB2F"/>
		<stop  offset="1" style="stop-color:#F9A42F"/>
	</radialGradient>
	<path style="fill:url(#SVGID_00000137851067851850953000000014357072866232932496_);" d="M673.6,191.7c3.2-2.1,6.3-4.6,9-7.4
		c3.3-3.4,6.1-7.3,8-11.9c0.9-2.2,1.8-7.2,1.8-7.2s-16.7-13.5-39.5,0.8c5.8,9,11.5,18.8,16.4,28.3
		C670.8,193.5,672.2,192.7,673.6,191.7z"/>
	
		<radialGradient id="SVGID_00000085939078643439445050000003893943811358568860_" cx="258.6983" cy="813.5934" r="930.1998" gradientTransform="matrix(1 0 0 -1 0 694)" gradientUnits="userSpaceOnUse">
		<stop  offset="1.150076e-03" style="stop-color:#FFD82B"/>
		<stop  offset="0.2503" style="stop-color:#FFC42F"/>
		<stop  offset="0.8221" style="stop-color:#F9A42F"/>
		<stop  offset="0.9165" style="stop-color:#F6902E"/>
		<stop  offset="0.9851" style="stop-color:#F5872E"/>
	</radialGradient>
	<path style="fill:url(#SVGID_00000085939078643439445050000003893943811358568860_);" d="M77.5,501.8c-0.5,0.5-0.9,1-1.3,1.5
		c-4.4,5.1-8.5,10.8-10.8,17.2c-1.3,3.7-2,7.7-1.8,12.1c0,0,11,13.8,39.1,9.8l-0.4-0.5c-9.1-12.7-16.8-25.1-24.5-39.5L77.5,501.8z"
		/>
	<g>
		
			<radialGradient id="SVGID_00000044869852384675539550000003238985017526280833_" cx="205.4192" cy="652.9972" r="696.9526" gradientTransform="matrix(1 0 0 -1 0 694)" gradientUnits="userSpaceOnUse">
			<stop  offset="0" style="stop-color:#FFD82B"/>
			<stop  offset="0.2503" style="stop-color:#FFC42F"/>
			<stop  offset="0.8221" style="stop-color:#F9A42F"/>
			<stop  offset="0.9179" style="stop-color:#F6902E"/>
			<stop  offset="0.9876" style="stop-color:#F5872E"/>
		</radialGradient>
		<path style="fill:url(#SVGID_00000044869852384675539550000003238985017526280833_);" d="M373.4,13.1
			C189,13.1,39.6,162.6,39.6,347s149.5,333.9,333.9,333.9S707.3,531.4,707.3,347S557.8,13.1,373.4,13.1z M639.5,522
			c-10.8,15.6-23.2,30.2-36.8,43.7l0,0c-60,59.5-144.3,97.3-229.1,97.3c-109.2,0-206.1-56-266.8-142.4
			c16.9-20.9,60.2-33.1,96.4-31.8c145,5.3,302.6,100.1,435.7,33.5l0,0C639,522.2,639.2,522.1,639.5,522L639.5,522L639.5,522z
			 M360.6,437.5c-174.5,0-303.1,83.9-303.1-90.6C57.5,172.5,198.9,31,373.4,31s315.9,141.5,315.9,316S535,437.5,360.6,437.5z"/>
		
			<linearGradient id="SVGID_00000181077622120744986330000005606479003919605907_" gradientUnits="userSpaceOnUse" x1="106.7" y1="161.515" x2="639.4" y2="161.515" gradientTransform="matrix(1 0 0 -1 0 694)">
			<stop  offset="0" style="stop-color:#FFC42F;stop-opacity:0"/>
			<stop  offset="0.231" style="stop-color:#FEBE2F;stop-opacity:0.1964"/>
			<stop  offset="0.5333" style="stop-color:#FBAE2F;stop-opacity:0.4533"/>
			<stop  offset="0.8737" style="stop-color:#F7932E;stop-opacity:0.7426"/>
			<stop  offset="1" style="stop-color:#F5872E;stop-opacity:0.85"/>
		</linearGradient>
		<path style="fill:url(#SVGID_00000181077622120744986330000005606479003919605907_);" d="M638.8,522.3
			c-133,66.6-290.7-28.2-435.7-33.5c-36.1-1.3-79.5,10.9-96.4,31.8c31.6-20.2,65.6-19.2,96.9-16.4c133.4,12.2,261.2,102.4,399,61.5
			l0,0c13.6-13.5,26-28.1,36.8-43.7C639.2,522.1,639,522.2,638.8,522.3z"/>
	</g>
	
		<linearGradient id="SVGID_00000078034524487015054780000004053010554905152422_" gradientUnits="userSpaceOnUse" x1="63.8392" y1="345.25" x2="691.6828" y2="345.25" gradientTransform="matrix(1 0 0 -1 0 694)">
		<stop  offset="0" style="stop-color:#BB2027"/>
		<stop  offset="0.1244" style="stop-color:#C12228"/>
		<stop  offset="0.2871" style="stop-color:#D1262C"/>
		<stop  offset="0.4705" style="stop-color:#EC2E33"/>
		<stop  offset="0.4759" style="stop-color:#ED2E33"/>
		<stop  offset="0.8064" style="stop-color:#DA252E"/>
		<stop  offset="1" style="stop-color:#CC1F2A"/>
	</linearGradient>
	<path style="fill:url(#SVGID_00000078034524487015054780000004053010554905152422_);" d="M64.5,532.4c-0.7,0-1.3,0-2,0
		c-0.5-1-0.8-2.2-1.4-3.1c-8.3-12.4-14.6-25.8-19.5-40c-7-20.3-12.5-40.9-14.8-62.2c-1.4-13-3.1-26.1-3.8-39.2
		c-0.7-12.3-0.4-24.7-0.1-37c0.3-11.2,0.8-22.4,2.1-33.5c1.4-12.1,3.6-24.2,5.8-36.3c3.6-19.3,8.7-38.1,17.4-55.9
		c10.3-20.9,28-32.1,49.4-38.8c12.7-4,25.6-6.4,39.1-7.1c14.1-0.7,28.2-2.5,42.4-1c21.1,2.2,42.3,3.2,63.5,5.2
		c12.9,1.2,25.7,3,38.5,5.1c20.7,3.4,41.2,7.4,61.9,10.7c22.5,3.6,45,6.9,67.5,10.1c15.6,2.2,31.2,4.3,46.8,5.9
		c14.1,1.4,28.3,2.8,42.4,2.9c21.2,0.3,42.5,0.2,63.7-1c17.2-1,34.3-3.1,51.3-6c18.5-3.1,36.9-7.4,53.6-16.6
		c11.9-6.6,21.2-15.2,24.1-29.5c1.2,1,2.1,1.7,2.9,2.5c11.9,11.9,18.8,26.7,24.1,42.2c6.4,18.8,10.7,38,12.1,57.8
		c0.3,4.4,1.4,8.8,2.1,13.2c0,13.3,0,26.6,0,39.9c-0.7,4.6-1.6,9.1-2.1,13.7c-1.3,9.7-1.7,19.6-3.7,29.2
		c-3.3,15.6-7.1,31.1-11.4,46.5c-3.9,14-10.3,27-20,37.8c-19.2,21.3-43.3,35-70.6,43.8c-25.5,8.2-51.7,11.8-78.2,13.2
		c-11.2,0.6-22.4,0.3-33.6,0.1c-18.4-0.5-36.7-1.2-55-2c-7.9-0.4-15.7-1.2-23.6-2.1c-11.1-1.2-22.1-2.6-33.2-3.9
		c-9.3-1.1-18.6-2-27.9-3.1c-12.5-1.5-25-3.2-37.5-4.8c-8.6-1.1-17.2-2.2-25.8-3.3c-9.4-1.2-18.8-2.6-28.3-3.6
		c-10.6-1.2-21.3-2.1-31.9-3.1c-14.7-1.3-29.4-3.3-44.2-3.7c-17.9-0.5-35.8,0.1-53.7,1c-10.9,0.5-21.9,1.9-32.6,4
		c-21.1,4.2-39.5,13.1-50.9,32.6C65.7,519,63.2,525.3,64.5,532.4z"/>
	<g>
		
			<linearGradient id="SVGID_00000054237285879525699250000014191240422203873671_" gradientUnits="userSpaceOnUse" x1="370.4453" y1="465.7539" x2="367.525" y2="241.8647" gradientTransform="matrix(1 0 0 -1 0 694)">
			<stop  offset="0.4338" style="stop-color:#C52028"/>
			<stop  offset="1" style="stop-color:#871618"/>
		</linearGradient>
		<path style="fill:url(#SVGID_00000054237285879525699250000014191240422203873671_);" d="M285.9,362.8
			c8.5-34.8,19.7-47.3,28.5-47.3c4.7,0,8.5,2.9,8.5,12.9c0,26.2-12.7,71.2-31.1,71.2c-5.7,0-11.3-2.1-13.6-4
			C279,391.8,284.9,366.9,285.9,362.8z M294.3,327.9c1.4-7,18.8-80.5,18.8-80.5h-24.8c-3.7,0-6.7,1.8-7.5,5.9l-18.3,77.5
			c-1.2,4.9-10.8,45.6-15,63.5c-0.2,0.8,1.6,1.3,1.5,2c-1.3,5.4-1.1,8.9-1.2,9c11.5,6.8,24.3,13.1,42.4,13.1
			c45.9,0,64.5-55.8,64.8-91.4c0.2-21.2-10.8-31.9-26.9-31.9c-17.5,0-28.9,11.3-36.7,24.2 M250.2,382.3c-2.8,7.5-9.4,14.4-15.9,14.4
			c-8,0-9-5.8-7.3-14.5c1.3-6.7,19.9-84.2,20.1-84.8h-23.5c-3.6,0-6.8,1.8-7.9,5.9l-1.4,5.8c-3.2-9.3-11.7-14.5-23.4-14.5
			c-32.2,0-56.4,47-56.8,88.8c-0.2,26.3,13.9,35,28.2,35c15.7,0,26.3-7.8,33.7-20c2.1,12.9,10.6,20,23.8,20c13.9,0,24.8-7,32.3-19.5
			 M199.6,365.9c-6,21.5-13.8,31.6-23.4,31.6c-7.8,0-10.1-4.3-10.1-14.7c0-26.6,15.1-69.9,32.1-69.8c10.4,0.1,9.4,18.3,5.9,34.7
			C203.3,351.3,200.7,362,199.6,365.9z M557.7,297.6c0,0-52,0-63.9,0c-3.5,0-5.4,1.9-6.1,4.9l-3.2,13.6c1.4,0,50.9,0,58.5,0
			C551.9,316.2,557.7,297.6,557.7,297.6z M451.8,271.2c-0.3,8.8,6.6,15.9,15.4,15.9s16.2-7.1,16.5-15.9s-6.6-16-15.4-16
			C459.5,255.2,452.1,262.4,451.8,271.2z M403.8,297.6h-21.6c-5.4,0-7.9,2.4-8.9,6.7c-6,25.5-26.4,111.3-26.4,111.3h31.7
			c0,0,11.8-50.7,15.3-65.1c3.2-13.1,6.5-20.7,10.8-24.4c6.3-5.4,14.2-3.6,23.8-8.3c4.8-2.4,9.3-7.3,10.1-17.3
			c-3.2-2.3-7.4-3.8-13.6-3.8c-10.9,0-18.6,6.4-25.3,18.6L403.8,297.6z M540.1,370.5c-2.3,9.7-11.3,26-20.9,26
			c-3.4,0-6.4-1.6-6.5-8.5c0-3.1,0.4-7.1,1.7-13l27.3-115.9H516c-3.7,0-6.7,1.8-7.8,5.9c0,0-21.7,91.8-25.3,107
			c-1.4,6.1-2.6,13-3,18.4c-1.2,20.2,10.2,27.6,25.2,27.6c16.3,0,29.2-10.8,35.9-22.2 M482.2,375.7c-4,10.2-11.2,20.9-19.5,20.9
			c-5,0-6.7-3.4-6.7-7.7c0-2.3,0.3-4.5,0.9-7.2l19.8-84H451c-3.7,0-6.7,1.8-7.8,5.9l-17.7,74.6c-1.4,6.1-2.3,11.6-2.7,17
			c-1,17.3,12.6,23,24,23c13.6,0,27.5-7.3,35.1-20.7 M662,399.5c-3.7,0.1-12.8,0-18-1.1c-8.5-1.8-10-9.5-8.2-18.7
			c1.4-7.2,18.9-81.6,19.1-82.2h-23.5c-3.7,0-7.1,1.9-8.2,6.3l-1.4,6.1c-2.6-10.5-11-14.9-23.3-14.9c-36.4,0-58.1,49.1-58.4,89.3
			c-0.2,24.1,12.4,33.8,28.8,33.8c17.8,0,28-8.3,35.6-21.3c2.2,13.7,10.5,21.3,24.3,21.3c14.5,0,22.5-5.1,30.3-18.4 M607.6,360.5
			c-6.3,22.9-14.8,34.4-24.7,34.4c-7.2,0-10.7-4.4-10.7-13.5c0-25.3,13.9-69.8,30.3-69.6c11.7,0.1,13.4,11.5,8.9,32.3
			C610.6,347.8,608.7,356.5,607.6,360.5z M696.5,312c8.2,0,13.2,5.4,21.3,5.4c10.6,0,16.7-7.9,19.4-16.1c-1.9-1-5.7-3.3-7.7-4.4
			c-0.2-0.1-1.7,1.9-1.9,1.8c-7-2.7-15-4.4-23.7-4.4c-29.5,0-46.7,15.1-46.7,37.7c0,26.9,34.2,37.2,34.2,54.2
			c0,7.2-4.2,13.7-19.8,13.7c-4.8,0-10.2-0.3-19.5-0.3c-7.3,0-10,0-12.8,7.1c11.6,6.7,24.3,10.9,38.9,10.9
			c28.1,0,44.8-17.7,44.8-38.8c0-32.3-37.8-40.9-37.8-57.4C685.3,315,688.5,312,696.5,312z M158.5,258.9
			c-11.8-7.6-28-12.6-46.1-12.6c-45.1,0-66.4,22.1-66.4,54.2c0,39.5,44.5,68.3,44.5,95.2c0,10.5-7.4,18.9-21.5,18.9
			c-17.3,0-28.7-11-41.5-11c-9.6,0-23,9.5-27.3,19.2C10.3,431,27.8,439,53.6,439c49.4,0,73.4-27.8,73.4-55.1
			c0-40.4-44.6-66.5-44.6-95.5c0-11.4,7.4-20.2,20.5-20.2c11.6,0,21.3,9.2,32.8,9.2C149.2,277.4,155.4,268.8,158.5,258.9z"/>
		<g>
			<g>
				<g>
					<g>
						<path class="st8" d="M281.3,356.8c8.5-34.8,19.7-47.3,28.5-47.3c4.7,0,8.5,2.9,8.5,12.9c0,26.2-12.6,71.2-32.1,71.2
							c-5.7,0-10.4-2.1-12.6-4C274.7,384.5,280.3,361,281.3,356.8z M289.7,321.9c1.4-7,18.8-80.5,18.8-80.5h-24.9
							c-3.7,0-6.7,1.8-7.5,5.9l-18.3,77.5c-1.2,4.9-10.8,45.6-15,63.5c-0.2,0.8,1.6,1.3,1.5,2c-1.3,5.4-1.1,8.9-1.2,9
							c11.5,6.8,24.3,13.1,42.4,13.1c45.9,0,64.5-55.8,64.8-91.4c0.2-21.2-10.8-31.9-26.9-31.9c-17.5,0-28.9,11.3-36.7,24.2"/>
						<path class="st8" d="M245.6,376.4c-2.8,7.5-9.4,15.5-17,15.5c-8,0-7.9-6.9-6.2-15.5c1.3-6.7,19.9-84.2,20.1-84.8H219
							c-3.6,0-6.8,1.8-7.9,5.9l-1.2,4.9c-4.2-9-12.5-13.2-23.6-13.2c-14.3,0-27.3,7.6-36.8,21.3c-12.4,17.8-19.8,44.2-20,67.1
							c-0.2,26.3,13.9,35,28.2,35c15.7,0,26.3-7.8,33.7-20c2.1,12.9,10.6,20,23.8,20c13.9,0,24.8-7,32.3-19.5 M194.9,359.9
							c-6,21.5-13.8,31.6-23.4,31.6c-6.4,0-10.1-4.3-10.1-14.7c0-26.6,15.1-69.8,32.1-69.8c9.6,0,11,11.9,7.7,27
							C200.5,337.5,196,356,194.9,359.9z"/>
						<path class="st8" d="M538.4,310.2c-7.6,0-57.1,0-58.5,0l3.2-13.6c0.7-3,2.6-4.9,6.1-4.9c11.9,0,63.9,0,63.9,0
							S547.3,310.2,538.4,310.2z"/>
						<path class="st8" d="M447.1,265.2c-0.3,8.8,6.6,15.9,15.4,15.9s16.2-7.1,16.5-15.9s-6.6-16-15.4-16S447.4,256.4,447.1,265.2z"
							/>
						<path class="st8" d="M394.7,310.5c7.2-13,13.9-20.5,25.8-20.5c5.2,0,10.6,1,13.9,2.7c-1.7,11.3-6.1,17-10.9,19.3
							c-7.5,3.6-15,1.5-22.5,7.8c-4.9,4.1-8.6,11.6-11.8,24.8c-3.5,14.3-15.3,65.1-15.3,65.1h-31.7c0,0,20.4-85.8,26.4-111.3
							c1-4.3,3.5-6.7,8.9-6.7h21.6L394.7,310.5z"/>
						<path class="st8" d="M536.4,390c-6.7,11.4-19.6,22.2-35.9,22.2c-15,0-26.4-7.4-25.2-27.6c0.3-5.4,1.5-12.3,3-18.4
							c3.6-15.3,25.3-107,25.3-107c1.1-4.1,4.1-5.9,7.8-5.9h25.7l-27.3,115.9c-1.3,5.9-1.7,9.9-1.7,13c0,6.9,3,8.5,6.5,8.5
							c9.6,0,18.6-16.3,20.9-26"/>
						<path class="st8" d="M477.3,391.5c-7.5,13.4-21.5,20.7-35.1,20.7c-11.4,0-25.1-5.7-24-23c0.3-5.4,1.2-10.9,2.7-17l17.7-74.6
							c1.1-4.1,4.1-5.9,7.8-5.9h25.7l-19.8,84c-0.6,2.7-0.9,5-0.9,7.2c0,4.3,1.7,7.7,6.7,7.7c8.3,0,15.5-10.6,19.5-20.9"/>
					</g>
				</g>
				<path class="st8" d="M647.6,388.5c-3.2,2.4-6.4,4.3-10.5,4.3c-6.1,0-9.9-3.3-7.1-17.7c1.4-7.2,19-82.5,19.2-83.1h-23.6
					c-3.7,0-7.1,1.9-8.2,6.3l-1.2,4.9c-3.1-9.2-11.3-13.7-23.5-13.7c-15.3,0-28,7.4-38.1,21c-13.2,18-20.2,44.9-20.4,68.2
					c-0.2,24.1,12.4,33.8,28.8,33.8c17.8,0,28-8.3,35.6-21.3c2.2,13.7,10.5,21.3,24.3,21.3c8.5,0,15.7-3.1,21.5-7.6
					c7.5,4.7,17.9,7.2,27.2,7.2 M606.5,339.3c-0.8,3.8-2.7,12.4-3.8,16.5c-6.3,22.9-14.8,34.4-24.7,34.4c-7.2,0-10.7-4.4-10.7-13.5
					c0-25.3,13.9-69.8,30.3-69.6C609.3,307,610.9,318.4,606.5,339.3z"/>
				<path class="st8" d="M693.3,305.6c8,0,13.6,6,21.4,6c9.8,0,14.2-6.6,16.1-14c-7.9-5.2-19.4-8.6-31.6-8.6
					c-29.4,0-45.5,15.3-45.5,37.9c0,26.8,35.1,40.4,35.1,57.4c0,6.2-4.3,11.4-13.4,11.4c-11.1,0-17.5-9.4-28-7.2
					c-3.7,3.5-9,3.3-11.7,10.3c5.9,5.2,19.9,13.2,36.7,13.2c28.6,0,44.2-17,44.2-37.4c0-26.5-35.4-39.4-35.4-57.9
					C681.2,310.4,685.6,305.6,693.3,305.6z"/>
			</g>
			<g>
				<path class="st8" d="M130.1,271.5c-11.5,0-21.2-9.2-32.8-9.2c-13.1,0-20.5,8.8-20.5,20.2c0,29,44.2,53.9,44.2,94.3
					c0,25.1-19.1,54.2-68.5,54.2c-24.9,0-43.6-9.8-52.5-17.2c4.2-9.6,12.3-16.3,21.9-16.3c12.9,0,24.3,11,41.5,11
					c14.1,0,21.5-7.1,21.5-18.9c0-26.9-44.5-55.7-44.5-95.2c0-32.2,21.3-54.2,66.4-54.2c18.1,0,34.3,5.1,46.1,12.6
					C149.9,262.9,143.7,271.5,130.1,271.5z"/>
			</g>
		</g>
	</g>
	<g>
		<path d="M769.4,266.3c5.4,0,9.7,4.3,9.7,9.7s-4.3,9.7-9.7,9.7s-9.7-4.3-9.7-9.7S764,266.3,769.4,266.3z M769.4,283.6
			c4.4,0,7.5-3.3,7.5-7.6s-3-7.6-7.5-7.6c-4.4,0-7.5,3.3-7.5,7.6S765,283.6,769.4,283.6z M765.6,270.6h4.2c2.8,0,4.2,0.9,4.2,3.2
			c0,1.9-1.2,2.8-2.8,2.9l2.9,4.8h-2.5l-2.8-4.8h-1.2v4.8h-2V270.6z M769.5,275.2c1.1,0,2.2-0.2,2.2-1.7c0-1.3-1.3-1.5-2.1-1.5h-1.9
			v3.1h1.8V275.2z"/>
	</g>
</g>
</svg>
